<?xml version="1.0" encoding="UTF-8"?>
<svg width="640px" height="144px" viewBox="0 0 640 144" version="1.1" xmlns="http://www.w3.org/2000/svg" xmlns:xlink="http://www.w3.org/1999/xlink">
    <!-- Generator: Sketch 56.2 (81672) - https://sketch.com -->
    <title>Desktop</title>
    <desc>Created with Sketch.</desc>
    <g id="Welcome" stroke="none" stroke-width="1" fill="none" fill-rule="evenodd">
        <g id="Desktop" transform="translate(-58.000000, -320.000000)" fill="#FFFFFF" fill-rule="nonzero">
            <g id="编组备份" transform="translate(58.000000, 320.000000)">
                <path d="M59.1899736,44.4538259 L86.3087071,85.4881266 L86.3087071,44.0738786 C86.3087071,41.3825723 86.8865378,39.3641228 88.0422164,38.0184697 C89.197895,36.6728165 90.7572461,36 92.7203166,36 C94.746712,36 96.3456406,36.6728165 97.5171504,38.0184697 C98.6886602,39.3641228 99.2744063,41.3825723 99.2744063,44.0738786 L99.2744063,98.8337731 C99.2744063,104.944622 96.7414501,108 91.6754617,108 C90.4089646,108 89.2691344,107.817944 88.2559367,107.453826 C87.242739,107.089708 86.2928804,106.511877 85.4063325,105.720317 C84.5197845,104.928756 83.6965737,104.002644 82.9366755,102.941953 C82.1767772,101.881261 81.4168903,100.796839 80.6569921,99.6886544 L54.2031662,59.1292876 L54.2031662,99.9261214 C54.2031662,102.585765 53.5857582,104.596299 52.3509235,105.957784 C51.1160888,107.319268 49.5329912,108 47.6015831,108 C45.6068502,108 44.0079216,107.311353 42.8047493,105.934037 C41.6015771,104.556721 41,102.554103 41,99.9261214 L41,46.2110818 C41,43.931387 41.2532956,42.1424867 41.7598945,40.8443272 C42.3614806,39.4195179 43.3588321,38.2559412 44.7519789,37.353562 C46.1451257,36.4511828 47.6490684,36 49.2638522,36 C50.5303493,36 51.6147712,36.2058027 52.5171504,36.6174142 C53.4195296,37.0290258 54.2110784,37.58311 54.8918206,38.2796834 C55.5725628,38.9762568 56.2691257,39.8786224 56.9815303,40.9868074 C57.693935,42.0949923 58.4300754,43.2506536 59.1899736,44.4538259 Z M178.30343,78.5065963 L178.30343,91.8522427 C178.30343,93.6253387 178.129289,95.0422111 177.781003,96.1029024 C177.432716,97.1635937 176.791561,98.1213678 175.85752,98.9762533 C174.923478,99.8311388 173.728239,100.65435 172.271768,101.44591 C168.060665,103.725605 164.007935,105.387858 160.113456,106.432718 C156.218978,107.477578 151.976276,108 147.385224,108 C142.034274,108 137.158333,107.176789 132.757256,105.530343 C128.356179,103.883897 124.604237,101.493419 121.501319,98.3588391 C118.398401,95.2242587 116.015839,91.4248244 114.353562,86.9604222 C112.691285,82.4960199 111.860158,77.5092624 111.860158,72 C111.860158,66.5857249 112.667538,61.6306293 114.282322,57.1345646 C115.897106,52.6384999 118.271752,48.8232347 121.406332,45.6886544 C124.540913,42.554074 128.356178,40.1556811 132.852243,38.4934037 C137.348307,36.8311263 142.445882,36 148.145119,36 C152.831158,36 156.978874,36.6253236 160.588391,37.8759894 C164.197907,39.1266553 167.126638,40.7018375 169.37467,42.6015831 C171.622703,44.5013288 173.316617,46.5118627 174.456464,48.6332454 C175.596312,50.754628 176.166227,52.6385142 176.166227,54.2849604 C176.166227,56.0580564 175.509241,57.5699146 174.195251,58.8205805 C172.88126,60.0712464 171.306078,60.6965699 169.469657,60.6965699 C168.456459,60.6965699 167.482854,60.4591053 166.548813,59.9841689 C165.614771,59.5092325 164.831138,58.8443315 164.197889,57.9894459 C162.456456,55.2664772 160.984175,53.2084502 159.781003,51.8153034 C158.57783,50.4221566 156.955155,49.2506644 154.912929,48.3007916 C152.870702,47.3509187 150.266507,46.8759894 147.100264,46.8759894 C143.839034,46.8759894 140.926134,47.4379891 138.361478,48.5620053 C135.796821,49.6860215 133.604231,51.316612 131.783641,53.4538259 C129.963052,55.5910397 128.569926,58.2110663 127.604222,61.3139842 C126.638518,64.4169021 126.155673,67.8522239 126.155673,71.6200528 C126.155673,79.7889591 128.031644,86.0738566 131.783641,90.474934 C135.535639,94.8760115 140.767776,97.0765172 147.480211,97.0765172 C150.741441,97.0765172 153.804735,96.6490808 156.670185,95.7941953 C159.535634,94.9393097 162.440619,93.7203245 165.385224,92.1372032 L165.385224,80.8337731 L154.461741,80.8337731 C151.83376,80.8337731 149.846972,80.4379987 148.501319,79.646438 C147.155666,78.8548773 146.48285,77.5092443 146.48285,75.6094987 C146.48285,74.0580397 147.044849,72.7757307 148.168865,71.762533 C149.292882,70.7493353 150.820571,70.2427441 152.751979,70.2427441 L168.757256,70.2427441 C170.720326,70.2427441 172.382579,70.4168848 173.744063,70.7651715 C175.105548,71.1134582 176.205801,71.889176 177.044855,73.0923483 C177.883909,74.2955205 178.30343,76.1002518 178.30343,78.5065963 Z M207.891821,87.2453826 L192.883905,87.2453826 C190.60421,87.2453826 188.870718,86.7150449 187.683377,85.6543536 C186.496036,84.5936622 185.902375,83.2242828 185.902375,81.5461741 C185.902375,79.8364031 186.480205,78.4511926 187.635884,77.3905013 C188.791563,76.32981 190.540885,75.7994723 192.883905,75.7994723 L207.891821,75.7994723 C210.23484,75.7994723 211.984163,76.32981 213.139842,77.3905013 C214.29552,78.4511926 214.873351,79.8364031 214.873351,81.5461741 C214.873351,83.2242828 214.303436,84.5936622 213.163588,85.6543536 C212.023741,86.7150449 210.266503,87.2453826 207.891821,87.2453826 Z M247.643799,96.3166227 L236.48285,51.9577836 L236.48285,100.021108 C236.48285,102.680752 235.889188,104.675455 234.701847,106.005277 C233.514506,107.335099 231.939324,108 229.976253,108 C228.076508,108 226.525072,107.343014 225.3219,106.029024 C224.118727,104.715033 223.51715,102.712415 223.51715,100.021108 L223.51715,44.9287599 C223.51715,41.8891669 224.308699,39.8390554 225.891821,38.7783641 C227.474942,37.7176728 229.612124,37.1873351 232.30343,37.1873351 L236.672823,37.1873351 C239.300805,37.1873351 241.208437,37.4247997 242.395778,37.8997361 C243.583119,38.3746726 244.461739,39.2295453 245.031662,40.4643799 C245.601586,41.6992146 246.250656,43.7097486 246.978892,46.4960422 L257.094987,84.6332454 L267.211082,46.4960422 C267.939318,43.7097486 268.588388,41.6992146 269.158311,40.4643799 C269.728235,39.2295453 270.606854,38.3746726 271.794195,37.8997361 C272.981536,37.4247997 274.889169,37.1873351 277.51715,37.1873351 L281.886544,37.1873351 C284.57785,37.1873351 286.715032,37.7176728 288.298153,38.7783641 C289.881274,39.8390554 290.672823,41.8891669 290.672823,44.9287599 L290.672823,100.021108 C290.672823,102.680752 290.079162,104.675455 288.891821,106.005277 C287.70448,107.335099 286.113466,108 284.118734,108 C282.25065,108 280.715046,107.335099 279.511873,106.005277 C278.308701,104.675455 277.707124,102.680752 277.707124,100.021108 L277.707124,51.9577836 L266.546174,96.3166227 C265.817938,99.1979036 265.224277,101.311339 264.765172,102.656992 C264.306066,104.002645 263.459109,105.229546 262.224274,106.337731 C260.98944,107.445916 259.279694,108 257.094987,108 C255.448541,108 254.055415,107.643803 252.915567,106.931398 C251.77572,106.218994 250.889185,105.308713 250.255937,104.200528 C249.622688,103.092343 249.124012,101.865442 248.759894,100.519789 C248.395777,99.1741358 248.023749,97.7730944 247.643799,96.3166227 Z M335.791557,36 C343.01059,36 349.208417,37.4643653 354.385224,40.3931398 C359.562031,43.3219144 363.480198,47.4854611 366.139842,52.883905 C368.799472,58.2823489 370.129288,64.6226549 370.129288,71.9050132 C370.129288,77.2876259 369.401063,82.1793975 367.944591,86.5804749 C366.488119,90.9815523 364.303445,94.7968176 361.390501,98.0263852 C358.477558,101.255953 354.899757,103.725585 350.656992,105.435356 C346.414227,107.145127 341.554117,108 336.076517,108 C330.63058,108 325.754639,107.121381 321.448549,105.364116 C317.142459,103.606851 313.548827,101.129304 310.667546,97.9313984 C307.786265,94.7334932 305.609506,90.886566 304.137203,86.3905013 C302.6649,81.8944366 301.92876,77.0343269 301.92876,71.8100264 C301.92876,66.4590761 302.696562,61.5514735 304.23219,57.0870712 C305.767818,52.622669 307.99207,48.8232347 310.905013,45.6886544 C313.817957,42.554074 317.364095,40.1556811 321.543536,38.4934037 C325.722976,36.8311263 330.472269,36 335.791557,36 Z M355.833773,71.8100264 C355.833773,66.7123756 355.010562,62.2955332 353.364116,58.5593668 C351.71767,54.8232003 349.36677,51.9973711 346.311346,50.0817942 C343.255921,48.1662173 339.74936,47.2084433 335.791557,47.2084433 C332.973601,47.2084433 330.369405,47.738781 327.978892,48.7994723 C325.588379,49.8601636 323.530352,51.4036838 321.804749,53.4300792 C320.079147,55.4564745 318.717683,58.0448391 317.720317,61.1952507 C316.72295,64.3456622 316.224274,67.8838854 316.224274,71.8100264 C316.224274,75.7678298 316.72295,79.3456304 317.720317,82.5435356 C318.717683,85.7414408 320.12664,88.3931293 321.94723,90.4986807 C323.767819,92.6042322 325.857508,94.1794143 328.216359,95.2242744 C330.57521,96.2691345 333.163574,96.7915567 335.98153,96.7915567 C339.591047,96.7915567 342.907637,95.8891911 345.931398,94.0844327 C348.95516,92.2796744 351.361469,89.4934225 353.150396,85.7255937 C354.939323,81.9577648 355.833773,77.3192888 355.833773,71.8100264 Z M396.013193,44.5488127 L396.013193,95.2242744 L424.604222,95.2242744 C426.883916,95.2242744 428.633239,95.7783586 429.852243,96.8865435 C431.071246,97.9947285 431.680739,99.3878544 431.680739,101.065963 C431.680739,102.775734 431.079162,104.160945 429.875989,105.221636 C428.672817,106.282327 426.915579,106.812665 424.604222,106.812665 L390.551451,106.812665 C387.480196,106.812665 385.271775,106.131933 383.926121,104.770449 C382.580468,103.408964 381.907652,101.208458 381.907652,98.1688654 L381.907652,44.5488127 C381.907652,41.6991942 382.548806,39.5620124 383.831135,38.1372032 C385.113463,36.7123939 386.799462,36 388.889182,36 C391.010565,36 392.728226,36.7044784 394.042216,38.1134565 C395.356207,39.5224345 396.013193,41.6675318 396.013193,44.5488127 Z M484.208443,98.9287599 L480.883905,90.1899736 L452.577836,90.1899736 L449.253298,99.1187335 C447.955139,102.601601 446.84697,104.952501 445.92876,106.171504 C445.010549,107.390507 443.506607,108 441.416887,108 C439.643791,108 438.076524,107.35093 436.71504,106.05277 C435.353555,104.754611 434.672823,103.28233 434.672823,101.635884 C434.672823,100.686011 434.831133,99.7044906 435.147757,98.6912929 C435.464382,97.6780952 435.986804,96.2691383 436.71504,94.4643799 L454.525066,49.2506596 C455.031665,47.9525001 455.641157,46.3931489 456.353562,44.5725594 C457.065967,42.7519698 457.825853,41.2401116 458.633245,40.0369393 C459.440637,38.8337671 460.501313,37.860162 461.815303,37.116095 C463.129294,36.3720279 464.751969,36 466.683377,36 C468.646448,36 470.284954,36.3720279 471.598945,37.116095 C472.912935,37.860162 473.973611,38.8179361 474.781003,39.9894459 C475.588395,41.1609557 476.269127,42.4195183 476.823219,43.7651715 C477.377311,45.1108247 478.08179,46.9076405 478.936675,49.1556728 L497.126649,94.0844327 C498.551458,97.5039749 499.263852,99.9894382 499.263852,101.540897 C499.263852,103.155681 498.591036,104.635877 497.245383,105.98153 C495.899729,107.327184 494.277054,108 492.377309,108 C491.269124,108 490.319265,107.802113 489.527704,107.406332 C488.736144,107.010552 488.071243,106.472299 487.532982,105.791557 C486.99472,105.110815 486.41689,104.06597 485.799472,102.656992 C485.182055,101.248014 484.651717,100.005282 484.208443,98.9287599 Z M456.282322,79.5989446 L477.084433,79.5989446 L466.588391,50.8654354 L456.282322,79.5989446 Z M510.187335,99.4036939 L510.187335,44.5488127 C510.187335,41.6991942 510.836405,39.5620124 512.134565,38.1372032 C513.432724,36.7123939 515.110808,36 517.168865,36 C519.290248,36 521.007909,36.7044784 522.3219,38.1134565 C523.63589,39.5224345 524.292876,41.6675318 524.292876,44.5488127 L524.292876,99.4036939 C524.292876,102.284975 523.63589,104.437988 522.3219,105.862797 C521.007909,107.287606 519.290248,108 517.168865,108 C515.14247,108 513.472302,107.279691 512.158311,105.83905 C510.844321,104.39841 510.187335,102.253312 510.187335,99.4036939 Z M558.440633,44.4538259 L585.559367,85.4881266 L585.559367,44.0738786 C585.559367,41.3825723 586.137197,39.3641228 587.292876,38.0184697 C588.448555,36.6728165 590.007906,36 591.970976,36 C593.997372,36 595.5963,36.6728165 596.76781,38.0184697 C597.93932,39.3641228 598.525066,41.3825723 598.525066,44.0738786 L598.525066,98.8337731 C598.525066,104.944622 595.99211,108 590.926121,108 C589.659624,108 588.519794,107.817944 587.506596,107.453826 C586.493399,107.089708 585.54354,106.511877 584.656992,105.720317 C583.770444,104.928756 582.947233,104.002644 582.187335,102.941953 C581.427437,101.881261 580.66755,100.796839 579.907652,99.6886544 L553.453826,59.1292876 L553.453826,99.9261214 C553.453826,102.585765 552.836418,104.596299 551.601583,105.957784 C550.366748,107.319268 548.783651,108 546.852243,108 C544.85751,108 543.258581,107.311353 542.055409,105.934037 C540.852237,104.556721 540.25066,102.554103 540.25066,99.9261214 L540.25066,46.2110818 C540.25066,43.931387 540.503955,42.1424867 541.010554,40.8443272 C541.61214,39.4195179 542.609492,38.2559412 544.002639,37.353562 C545.395785,36.4511828 546.899728,36 548.514512,36 C549.781009,36 550.865431,36.2058027 551.76781,36.6174142 C552.670189,37.0290258 553.461738,37.58311 554.14248,38.2796834 C554.823222,38.9762568 555.519785,39.8786224 556.23219,40.9868074 C556.944595,42.0949923 557.680735,43.2506536 558.440633,44.4538259 Z" id="NG-MOLAIN"></path>
            </g>
        </g>
    </g>
</svg>