<?xml version="1.0" encoding="UTF-8"?>
<svg width="640px" height="144px" viewBox="0 0 640 144" version="1.1" xmlns="http://www.w3.org/2000/svg" xmlns:xlink="http://www.w3.org/1999/xlink">
    <!-- Generator: Sketch 55.2 (78181) - https://sketchapp.com -->
    <title>Desktop</title>
    <desc>Created with Sketch.</desc>
    <g id="Welcome" stroke="none" stroke-width="1" fill="none" fill-rule="evenodd">
        <g id="Desktop" transform="translate(-58.000000, -103.000000)" fill="#0d1a26" fill-rule="nonzero">
            <path d="M117.189974,147.453826 L144.308707,188.488127 L144.308707,147.073879 C144.308707,144.382572 144.886538,142.364123 146.042216,141.01847 C147.197895,139.672816 148.757246,139 150.720317,139 C152.746712,139 154.345641,139.672816 155.51715,141.01847 C156.68866,142.364123 157.274406,144.382572 157.274406,147.073879 L157.274406,201.833773 C157.274406,207.944622 154.74145,211 149.675462,211 C148.408965,211 147.269134,210.817944 146.255937,210.453826 C145.242739,210.089708 144.29288,209.511877 143.406332,208.720317 C142.519784,207.928756 141.696574,207.002644 140.936675,205.941953 C140.176777,204.881261 139.41689,203.796839 138.656992,202.688654 L112.203166,162.129288 L112.203166,202.926121 C112.203166,205.585765 111.585758,207.596299 110.350923,208.957784 C109.116089,210.319268 107.532991,211 105.601583,211 C103.60685,211 102.007922,210.311353 100.804749,208.934037 C99.6015771,207.556721 99,205.554103 99,202.926121 L99,149.211082 C99,146.931387 99.2532956,145.142487 99.7598945,143.844327 C100.361481,142.419518 101.358832,141.255941 102.751979,140.353562 C104.145126,139.451183 105.649068,139 107.263852,139 C108.530349,139 109.614771,139.205803 110.51715,139.617414 C111.41953,140.029026 112.211078,140.58311 112.891821,141.279683 C113.572563,141.976257 114.269126,142.878622 114.98153,143.986807 C115.693935,145.094992 116.430075,146.250654 117.189974,147.453826 Z M236.30343,181.506596 L236.30343,194.852243 C236.30343,196.625339 236.129289,198.042211 235.781003,199.102902 C235.432716,200.163594 234.791561,201.121368 233.85752,201.976253 C232.923478,202.831139 231.728239,203.65435 230.271768,204.44591 C226.060665,206.725605 222.007935,208.387858 218.113456,209.432718 C214.218978,210.477578 209.976276,211 205.385224,211 C200.034274,211 195.158333,210.176789 190.757256,208.530343 C186.356179,206.883897 182.604237,204.493419 179.501319,201.358839 C176.398401,198.224259 174.015839,194.424824 172.353562,189.960422 C170.691285,185.49602 169.860158,180.509262 169.860158,175 C169.860158,169.585725 170.667538,164.630629 172.282322,160.134565 C173.897106,155.6385 176.271752,151.823235 179.406332,148.688654 C182.540913,145.554074 186.356178,143.155681 190.852243,141.493404 C195.348307,139.831126 200.445882,139 206.145119,139 C210.831158,139 214.978874,139.625324 218.588391,140.875989 C222.197907,142.126655 225.126638,143.701837 227.37467,145.601583 C229.622703,147.501329 231.316617,149.511863 232.456464,151.633245 C233.596312,153.754628 234.166227,155.638514 234.166227,157.28496 C234.166227,159.058056 233.509241,160.569915 232.195251,161.82058 C230.88126,163.071246 229.306078,163.69657 227.469657,163.69657 C226.456459,163.69657 225.482854,163.459105 224.548813,162.984169 C223.614771,162.509232 222.831138,161.844331 222.197889,160.989446 C220.456456,158.266477 218.984175,156.20845 217.781003,154.815303 C216.57783,153.422157 214.955155,152.250664 212.912929,151.300792 C210.870702,150.350919 208.266507,149.875989 205.100264,149.875989 C201.839034,149.875989 198.926134,150.437989 196.361478,151.562005 C193.796821,152.686021 191.604231,154.316612 189.783641,156.453826 C187.963052,158.59104 186.569926,161.211066 185.604222,164.313984 C184.638518,167.416902 184.155673,170.852224 184.155673,174.620053 C184.155673,182.788959 186.031644,189.073857 189.783641,193.474934 C193.535639,197.876011 198.767776,200.076517 205.480211,200.076517 C208.741441,200.076517 211.804735,199.649081 214.670185,198.794195 C217.535634,197.93931 220.440619,196.720325 223.385224,195.137203 L223.385224,183.833773 L212.461741,183.833773 C209.83376,183.833773 207.846972,183.437999 206.501319,182.646438 C205.155666,181.854877 204.48285,180.509244 204.48285,178.609499 C204.48285,177.05804 205.044849,175.775731 206.168865,174.762533 C207.292882,173.749335 208.820571,173.242744 210.751979,173.242744 L226.757256,173.242744 C228.720326,173.242744 230.382579,173.416885 231.744063,173.765172 C233.105548,174.113458 234.205801,174.889176 235.044855,176.092348 C235.883909,177.295521 236.30343,179.100252 236.30343,181.506596 Z M265.891821,190.245383 L250.883905,190.245383 C248.60421,190.245383 246.870718,189.715045 245.683377,188.654354 C244.496036,187.593662 243.902375,186.224283 243.902375,184.546174 C243.902375,182.836403 244.480205,181.451193 245.635884,180.390501 C246.791563,179.32981 248.540885,178.799472 250.883905,178.799472 L265.891821,178.799472 C268.23484,178.799472 269.984163,179.32981 271.139842,180.390501 C272.29552,181.451193 272.873351,182.836403 272.873351,184.546174 C272.873351,186.224283 272.303436,187.593662 271.163588,188.654354 C270.023741,189.715045 268.266503,190.245383 265.891821,190.245383 Z M305.643799,199.316623 L294.48285,154.957784 L294.48285,203.021108 C294.48285,205.680752 293.889188,207.675455 292.701847,209.005277 C291.514506,210.335099 289.939324,211 287.976253,211 C286.076508,211 284.525072,210.343014 283.3219,209.029024 C282.118727,207.715033 281.51715,205.712415 281.51715,203.021108 L281.51715,147.92876 C281.51715,144.889167 282.308699,142.839055 283.891821,141.778364 C285.474942,140.717673 287.612124,140.187335 290.30343,140.187335 L294.672823,140.187335 C297.300805,140.187335 299.208437,140.4248 300.395778,140.899736 C301.583119,141.374673 302.461739,142.229545 303.031662,143.46438 C303.601586,144.699215 304.250656,146.709749 304.978892,149.496042 L315.094987,187.633245 L325.211082,149.496042 C325.939318,146.709749 326.588388,144.699215 327.158311,143.46438 C327.728235,142.229545 328.606854,141.374673 329.794195,140.899736 C330.981536,140.4248 332.889169,140.187335 335.51715,140.187335 L339.886544,140.187335 C342.57785,140.187335 344.715032,140.717673 346.298153,141.778364 C347.881274,142.839055 348.672823,144.889167 348.672823,147.92876 L348.672823,203.021108 C348.672823,205.680752 348.079162,207.675455 346.891821,209.005277 C345.70448,210.335099 344.113466,211 342.118734,211 C340.25065,211 338.715046,210.335099 337.511873,209.005277 C336.308701,207.675455 335.707124,205.680752 335.707124,203.021108 L335.707124,154.957784 L324.546174,199.316623 C323.817938,202.197904 323.224277,204.311339 322.765172,205.656992 C322.306066,207.002645 321.459109,208.229546 320.224274,209.337731 C318.98944,210.445916 317.279694,211 315.094987,211 C313.448541,211 312.055415,210.643803 310.915567,209.931398 C309.77572,209.218994 308.889185,208.308713 308.255937,207.200528 C307.622688,206.092343 307.124012,204.865442 306.759894,203.519789 C306.395777,202.174136 306.023749,200.773094 305.643799,199.316623 Z M393.791557,139 C401.01059,139 407.208417,140.464365 412.385224,143.39314 C417.562031,146.321914 421.480198,150.485461 424.139842,155.883905 C426.799472,161.282349 428.129288,167.622655 428.129288,174.905013 C428.129288,180.287626 427.401063,185.179398 425.944591,189.580475 C424.488119,193.981552 422.303445,197.796818 419.390501,201.026385 C416.477558,204.255953 412.899757,206.725585 408.656992,208.435356 C404.414227,210.145127 399.554117,211 394.076517,211 C388.63058,211 383.754639,210.121381 379.448549,208.364116 C375.142459,206.606851 371.548827,204.129304 368.667546,200.931398 C365.786265,197.733493 363.609506,193.886566 362.137203,189.390501 C360.6649,184.894437 359.92876,180.034327 359.92876,174.810026 C359.92876,169.459076 360.696562,164.551474 362.23219,160.087071 C363.767818,155.622669 365.99207,151.823235 368.905013,148.688654 C371.817957,145.554074 375.364095,143.155681 379.543536,141.493404 C383.722976,139.831126 388.472269,139 393.791557,139 Z M413.833773,174.810026 C413.833773,169.712376 413.010562,165.295533 411.364116,161.559367 C409.71767,157.8232 407.36677,154.997371 404.311346,153.081794 C401.255921,151.166217 397.74936,150.208443 393.791557,150.208443 C390.973601,150.208443 388.369405,150.738781 385.978892,151.799472 C383.588379,152.860164 381.530352,154.403684 379.804749,156.430079 C378.079147,158.456475 376.717683,161.044839 375.720317,164.195251 C374.72295,167.345662 374.224274,170.883885 374.224274,174.810026 C374.224274,178.76783 374.72295,182.34563 375.720317,185.543536 C376.717683,188.741441 378.12664,191.393129 379.94723,193.498681 C381.767819,195.604232 383.857508,197.179414 386.216359,198.224274 C388.57521,199.269135 391.163574,199.791557 393.98153,199.791557 C397.591047,199.791557 400.907637,198.889191 403.931398,197.084433 C406.95516,195.279674 409.361469,192.493423 411.150396,188.725594 C412.939323,184.957765 413.833773,180.319289 413.833773,174.810026 Z M454.013193,147.548813 L454.013193,198.224274 L482.604222,198.224274 C484.883916,198.224274 486.633239,198.778359 487.852243,199.886544 C489.071246,200.994728 489.680739,202.387854 489.680739,204.065963 C489.680739,205.775734 489.079162,207.160945 487.875989,208.221636 C486.672817,209.282327 484.915579,209.812665 482.604222,209.812665 L448.551451,209.812665 C445.480196,209.812665 443.271775,209.131933 441.926121,207.770449 C440.580468,206.408964 439.907652,204.208458 439.907652,201.168865 L439.907652,147.548813 C439.907652,144.699194 440.548806,142.562012 441.831135,141.137203 C443.113463,139.712394 444.799462,139 446.889182,139 C449.010565,139 450.728226,139.704478 452.042216,141.113456 C453.356207,142.522434 454.013193,144.667532 454.013193,147.548813 Z M542.208443,201.92876 L538.883905,193.189974 L510.577836,193.189974 L507.253298,202.118734 C505.955139,205.601601 504.84697,207.952501 503.92876,209.171504 C503.010549,210.390507 501.506607,211 499.416887,211 C497.643791,211 496.076524,210.35093 494.71504,209.05277 C493.353555,207.754611 492.672823,206.28233 492.672823,204.635884 C492.672823,203.686011 492.831133,202.704491 493.147757,201.691293 C493.464382,200.678095 493.986804,199.269138 494.71504,197.46438 L512.525066,152.25066 C513.031665,150.9525 513.641157,149.393149 514.353562,147.572559 C515.065967,145.75197 515.825853,144.240112 516.633245,143.036939 C517.440637,141.833767 518.501313,140.860162 519.815303,140.116095 C521.129294,139.372028 522.751969,139 524.683377,139 C526.646448,139 528.284954,139.372028 529.598945,140.116095 C530.912935,140.860162 531.973611,141.817936 532.781003,142.989446 C533.588395,144.160956 534.269127,145.419518 534.823219,146.765172 C535.377311,148.110825 536.08179,149.90764 536.936675,152.155673 L555.126649,197.084433 C556.551458,200.503975 557.263852,202.989438 557.263852,204.540897 C557.263852,206.155681 556.591036,207.635877 555.245383,208.98153 C553.899729,210.327184 552.277054,211 550.377309,211 C549.269124,211 548.319265,210.802113 547.527704,210.406332 C546.736144,210.010552 546.071243,209.472299 545.532982,208.791557 C544.99472,208.110815 544.41689,207.06597 543.799472,205.656992 C543.182055,204.248014 542.651717,203.005282 542.208443,201.92876 Z M514.282322,182.598945 L535.084433,182.598945 L524.588391,153.865435 L514.282322,182.598945 Z M568.187335,202.403694 L568.187335,147.548813 C568.187335,144.699194 568.836405,142.562012 570.134565,141.137203 C571.432724,139.712394 573.110808,139 575.168865,139 C577.290248,139 579.007909,139.704478 580.3219,141.113456 C581.63589,142.522434 582.292876,144.667532 582.292876,147.548813 L582.292876,202.403694 C582.292876,205.284975 581.63589,207.437988 580.3219,208.862797 C579.007909,210.287606 577.290248,211 575.168865,211 C573.14247,211 571.472302,210.279691 570.158311,208.83905 C568.844321,207.39841 568.187335,205.253312 568.187335,202.403694 Z M616.440633,147.453826 L643.559367,188.488127 L643.559367,147.073879 C643.559367,144.382572 644.137197,142.364123 645.292876,141.01847 C646.448555,139.672816 648.007906,139 649.970976,139 C651.997372,139 653.5963,139.672816 654.76781,141.01847 C655.93932,142.364123 656.525066,144.382572 656.525066,147.073879 L656.525066,201.833773 C656.525066,207.944622 653.99211,211 648.926121,211 C647.659624,211 646.519794,210.817944 645.506596,210.453826 C644.493399,210.089708 643.54354,209.511877 642.656992,208.720317 C641.770444,207.928756 640.947233,207.002644 640.187335,205.941953 C639.427437,204.881261 638.66755,203.796839 637.907652,202.688654 L611.453826,162.129288 L611.453826,202.926121 C611.453826,205.585765 610.836418,207.596299 609.601583,208.957784 C608.366748,210.319268 606.783651,211 604.852243,211 C602.85751,211 601.258581,210.311353 600.055409,208.934037 C598.852237,207.556721 598.25066,205.554103 598.25066,202.926121 L598.25066,149.211082 C598.25066,146.931387 598.503955,145.142487 599.010554,143.844327 C599.61214,142.419518 600.609492,141.255941 602.002639,140.353562 C603.395785,139.451183 604.899728,139 606.514512,139 C607.781009,139 608.865431,139.205803 609.76781,139.617414 C610.670189,140.029026 611.461738,140.58311 612.14248,141.279683 C612.823222,141.976257 613.519785,142.878622 614.23219,143.986807 C614.944595,145.094992 615.680735,146.250654 616.440633,147.453826 Z" id="NG-MOLAIN"></path>
        </g>
    </g>
</svg>